<?xml version="1.0"?>
<svg xmlns="http://www.w3.org/2000/svg" xmlns:xlink="http://www.w3.org/1999/xlink" version="1.1" viewBox="0 0 252 252" width="500px" height="500px"><g fill="none" fill-rule="nonzero" stroke="none" stroke-width="1" stroke-linecap="butt" stroke-linejoin="miter" stroke-miterlimit="10" stroke-dasharray="" stroke-dashoffset="0" font-family="none" font-weight="none" font-size="none" text-anchor="none" style="mix-blend-mode: normal"><path d="M0,252v-252h252v252z" fill="none"/><path d="M12.6,252c-6.95879,0 -12.6,-5.64121 -12.6,-12.6v-226.8c0,-6.95879 5.64121,-12.6 12.6,-12.6h226.8c6.95879,0 12.6,5.64121 12.6,12.6v226.8c0,6.95879 -5.64121,12.6 -12.6,12.6z" fill="#2a517b"/><g fill="#f8f9fa"><g id="surface1"><path d="M126,38.92219c-1.90476,0.01476 -3.8243,0.5168 -5.55187,1.5061c-81.25524,49.42054 -81.24047,51.26625 -81.38813,53.80594c-0.05906,1.06313 1.96383,3.27797 7.50094,8.29828c-0.0443,0.25101 -0.07383,0.5168 -0.05906,0.76781c0,11.57625 0.02953,40.14774 0.0443,46.42312c-2.28867,1.35844 -3.70617,3.8243 -3.70617,6.49688c0,0.87117 0.16242,1.74235 0.45774,2.56922c-2.55445,2.06719 -4.23774,5.1532 -4.23774,8.65265c0,4.45922 2.3182,8.25399 4.32633,11.59101c2.00812,3.3518 4.01625,5.95055 4.01625,5.95055c0.70875,0.93024 1.81617,1.47656 2.98266,1.47656c1.16649,0 2.2739,-0.53156 2.99742,-1.44703c0,0 2.00813,-2.56922 4.03101,-5.89149c2.02289,-3.33703 4.32633,-7.1761 4.32633,-11.67961c0,-3.49945 -1.68328,-6.58547 -4.23774,-8.65265c0.29531,-0.82687 0.45774,-1.69805 0.45774,-2.56922c0,-2.62828 -1.3732,-5.06461 -3.60281,-6.43781c-0.01476,-5.37469 -0.02953,-26.23851 -0.0443,-40.39875c5.06461,4.48875 9.0218,8.01774 18.76711,16.59656v-26.46c0,0 20.00742,-11.34 52.92,-11.34c32.91258,0 52.92,11.34 52.92,11.34v26.46c25.9875,-22.99008 34.13813,-29.7232 34.02,-31.76086c-0.14765,-2.53969 -0.13289,-4.37062 -81.46195,-53.8207c-1.68328,-0.9893 -3.58805,-1.47656 -5.47805,-1.47656zM178.92,125.98031c-0.10336,0.0886 -0.67922,-0.11812 -1.62422,-0.53156c-1.25508,-0.41344 -3.27797,-1.01883 -5.93578,-1.69805v10.21781l4.19344,-0.44297c0.01476,0 2.89406,-0.23625 4.88742,1.55039c1.49133,1.34367 2.25914,3.64711 2.25914,6.86601c0,4.7693 -2.96789,10.0111 -7.95867,10.51312l-2.30344,0.23625l-0.82687,2.17055c-12.93469,33.5032 -28.27617,50.49844 -45.59625,50.49844h-0.01476h-0.01476c-17.32008,0 -32.66156,-16.99524 -45.59625,-50.49844l-0.82687,-2.17055l-2.30344,-0.23625c-4.99078,-0.50203 -7.95867,-5.74383 -7.95867,-10.51312c0,-3.18938 0.73828,-5.47804 2.21485,-6.83648c1.97859,-1.81617 4.93172,-1.57992 4.93172,-1.57992l4.19344,0.44297v-10.21781c-2.7907,0.72352 -4.87265,1.34367 -6.11297,1.74235c-0.84164,0.3839 -1.34367,0.57586 -1.44703,0.48726v0.26578c-2.00812,0.39867 -4.42969,1.28461 -6.5707,3.20414c-3.15985,2.835 -4.7693,7.0432 -4.7693,12.49172c0,8.505 5.16797,15.66633 12.35883,17.60063c14.04211,35.42274 31.49508,53.37774 51.88641,53.37774h0.01476h0.01476c20.39133,0 37.82953,-17.955 51.88641,-53.37774c7.19086,-1.94906 12.35883,-9.09563 12.35883,-17.60063c0,-5.44851 -1.60945,-9.65672 -4.7693,-12.49172c-2.14101,-1.91953 -4.56258,-2.80547 -6.5707,-3.20414zM80.64,123.7507c8.72649,-2.21484 24.6143,-5.33039 45.36,-5.33039c20.76047,0 36.63351,3.10078 45.36,5.33039v-19.44633c-6.95461,-2.96789 -23.01961,-8.56406 -45.36,-8.56406c-22.51758,0 -38.44969,5.56664 -45.36,8.53453zM50.4,163.78031c2.17055,0 3.78,1.63899 3.78,3.66188c0,1.07789 -1.47656,4.84313 -3.23367,7.73719c-0.26578,0.44297 -0.26578,0.38391 -0.53156,0.78258c-0.26578,-0.4282 -0.28054,-0.36914 -0.56109,-0.82688c-1.77188,-2.92359 -3.23367,-6.76265 -3.23367,-7.69289c0,-2.02289 1.60945,-3.66188 3.78,-3.66188z"/></g></g></g></svg>
